<svg id="Layer_1" data-name="Layer 1" xmlns="http://www.w3.org/2000/svg" viewBox="0 0 1024 1024"><defs><style>.cls-1{fill:#fff;}</style></defs><title>Artboard 1</title><path class="cls-1" d="M291.08,565.6A106.67,106.67,0,0,0,184.54,459.07H18V781.18H87.54v-109h27.64l109,109h98.35L210.35,669A106.72,106.72,0,0,0,291.08,565.6Zm-203.54,37v-74h97a37,37,0,0,1,0,74Z"/><polygon class="cls-1" points="709.39 528.61 822.93 528.61 822.93 781.18 892.49 781.18 892.49 528.61 1006.01 528.61 1006.01 459.07 709.39 459.07 709.39 528.61"/><path class="cls-1" d="M431.38,489.57A754.43,754.43,0,0,1,540.17,249.13h0l-56.88-40.08Q460,242.95,440.16,279A822.37,822.37,0,0,0,375,433.18Z"/><path class="cls-1" d="M803.75,212.8v0L774.2,150.18a686.74,686.74,0,0,0-81.83,45.59A695.53,695.53,0,0,0,482.8,409.28a685.62,685.62,0,0,0-45.58,86.12l53.21,53.21a614.59,614.59,0,0,1,139.25-212.9A621.43,621.43,0,0,1,803.75,212.8Z"/><path class="cls-1" d="M999.35,346.81,996.2,277A577.87,577.87,0,0,0,491.84,560.46L342,410.61l-49.17,49.18L469.4,636.37V781.18H539V618.73a507.85,507.85,0,0,1,90.95-123.6c99.29-99.28,234-150.77,369.47-148.3Z"/></svg>